# Alias OBJ Model File
# Exported from SketchUp, (c) 2000-2012 Trimble Navigation Limited
# File units = meters

mtllib Scuplt_Leg_Table.mtl

g Mesh1 Model

usemtl Wood_Cherry_Original
v 0 0.1 -0
vt 0 0.0546807
vn -1 0 -0
v 0 0.1 -2.29761
vt -1.25635 0.0546807
v 0 0 -2.29761
vt -1.25635 0
v 0 0 -2.19761
vt -1.20167 0
v 0 0 -0.1
vt -0.0546807 0
v 0 0 -0
vt 0 0
f 1/1/1 2/2/1 3/3/1 4/4/1 5/5/1 6/6/1 

vt 0 1.25635
vn 0 1 -0
v 1.42 0.1 -0
vt 0.776465 0
v 1.42 0.1 -2.29761
vt 0.776465 1.25635
f 2/7/2 1/6/2 7/8/2 8/9/2 

v 1.22 0 -0
vt 0.667104 0
vn 0 0 1
v 1.32 0 -0
vt 0.721785 0
v 1.42 0 -0
vt 0.776465 0.0546807
v 0.1 0 -0
vt 0.0546807 0
f 9/10/3 10/11/3 11/8/3 7/12/3 1/1/3 6/6/3 12/13/3 

vt -0.667104 0
vn 0 -1 -0
v 1.32 0 -0.2
vt -0.721785 0.109361
vt -0.721785 0
f 9/14/4 13/15/4 10/16/4

v 1.22 0 -0.1
vt -0.667104 0.0546807
f 9/14/4 14/17/4 13/15/4

v 1.17 0 -0.15
vt -0.639764 0.082021
f 9/14/4 15/18/4 14/17/4

v 0.25 0 -0.15
vt -0.136702 0.082021
f 9/14/4 16/19/4 15/18/4

v 0.2 0 -0.1
vt -0.109361 0.0546807
f 9/14/4 17/20/4 16/19/4

f 12/5/4 17/20/4 9/14/4

v 0.1 0 -0.2
vt -0.0546807 0.109361
f 12/5/4 18/21/4 17/20/4

v 0.1 0 -2.09761
vt -0.0546807 1.14699
f 12/5/4 19/22/4 18/21/4

f 19/22/4 12/5/4 5/1/4

f 6/6/4 5/1/4 12/5/4

v 0.1 0 -2.29761
vt -0.0546807 1.25635
f 5/1/4 20/23/4 19/22/4

vt 0 1.20167
f 20/23/4 5/1/4 4/24/4

f 3/7/4 20/23/4 4/24/4

vn 0 0 -1
vt -0.776465 0.0546807
v 1.42 0 -2.29761
vt -0.776465 0
v 1.32 0 -2.29761
f 2/1/5 8/25/5 21/26/5 22/16/5 20/5/5 3/6/5 

vt 1.25635 0
vn 1 0 -0
vt 1.25635 0.0546807
v 1.42 0 -0.1
v 1.42 0 -2.19761
vt 1.20167 0
f 21/27/6 8/28/6 7/1/6 11/6/6 23/13/6 24/29/6 

f 11/26/4 10/16/4 23/25/4

vt -0.776465 1.20167
f 10/16/4 24/30/4 23/25/4

f 13/15/4 24/30/4 10/16/4

v 1.32 0 -2.09761
vt -0.721785 1.14699
f 25/31/4 24/30/4 13/15/4

vt -0.721785 1.25635
f 25/31/4 22/32/4 24/30/4

v 1.22 0 -2.19761
vt -0.667104 1.20167
f 26/33/4 22/32/4 25/31/4

v 1.17 0 -2.14761
vt -0.639764 1.17433
f 27/34/4 22/32/4 26/33/4

v 0.25 0 -2.14761
vt -0.136702 1.17433
f 28/35/4 22/32/4 27/34/4

v 0.2 0 -2.19761
vt -0.109361 1.20167
f 29/36/4 22/32/4 28/35/4

f 29/36/4 20/23/4 22/32/4

f 19/22/4 20/23/4 29/36/4

usemtl FrontColor
v 0.2 -0.8 -2.14761
vt 65.3547 -29.0715
vn 0.706417 0.0441511 0.706417
vt 66.7467 2.45529
vt 61.1789 2.45529
v 0.15 -0.8 -2.09761
vt 62.5708 -29.0715
f 30/37/7 29/38/7 19/39/7 31/40/7 

vt 86.52 -3.01981e-14
vn 1 3.83515e-15 5.95577e-14
vt 84.5515 -31.4961
v 0.2 -0.1 -2.19761
vt 86.52 -3.93701
f 29/41/8 30/42/8 32/43/8

usemtl Metal_Seamed
vt -3.70815 -0.0625992
vn -0.706207 -0.0504433 -0.706207
vt -3.63082 -1.59561
vt -3.47616 -1.59561
v 0.1 -0.1 -2.09761
vt -3.39883 -0.0625992
f 32/44/9 30/45/9 31/46/9 33/47/9 

vt 3.01218 -1.5644
vn 0.706207 -0.0504433 -0.706207
vt 3.08951 -0.0313929
v 0.25 -0.1 -2.14761
vt 2.93485 -0.0313929
v 0.3 -0.1 -2.09761
vt 2.78019 -0.0313929
v 0.25 -0.8 -2.09761
vt 2.85752 -1.5644
f 30/48/10 32/49/10 34/50/10 35/51/10 36/52/10 

vt 2.93485 4.43233e-15
vn 0.707107 -1.19529e-15 -0.707107
vt 2.93485 -0.218723
vt 3.08951 -0.218723
vt 3.08951 4.43233e-15
f 28/53/11 34/54/11 32/55/11 29/56/11 

vt -0.546807 0
vn -3.92343e-16 0 -1
vt -2.55906 0
v 1.17 -0.1 -2.14761
vt -2.55906 -0.218723
vt -0.546807 -0.218723
f 28/57/12 27/58/12 37/59/12 34/60/12 

vt -5.28568 -3.85955e-15
vn -0.707107 2.55266e-15 -0.707107
v 1.22 -0.1 -2.19761
vt -5.28568 -0.218723
vt -5.13102 -0.218723
vt -5.13102 -3.85955e-15
f 26/61/13 38/62/13 37/63/13 27/64/13 

vt 1.20265 -1.34926e-14
vn 0.707107 2.55266e-15 -0.707107
v 1.32 -0.1 -2.09761
vt 1.20265 -0.218723
vt 1.51197 -0.218723
vt 1.51197 -1.34926e-14
f 25/65/14 39/66/14 38/67/14 26/68/14 

v 1.27 0 -2.04761
vt 5.13102 0
vn 0.707107 0 0.707107
v 1.27 -0.1 -2.04761
vt 5.13102 -0.218723
vt 5.28568 -0.218723
vt 5.28568 0
f 40/69/15 41/70/15 39/71/15 25/72/15 

vt 4.47858 0
v 1.27 0 -0.25
vt 0.546807 0
v 1.27 -0.1 -0.25
vt 0.546807 -0.218723
vt 4.47858 -0.218723
f 40/73/6 42/74/6 43/75/6 41/76/6 

usemtl Wood_Cherry_Original
vt -0.694444 0.136702
vt -0.694444 1.11965
f 25/31/4 42/77/4 40/78/4

f 42/77/4 25/31/4 13/15/4

usemtl FrontColor
vt -48.0315 3.93701
vt -46.063 5.90551
v 1.12 0 -0.2
vt -44.0945 7.87402
v 1.17 0 -0.25
vt -46.063 9.84252
v 1.22 0 -0.3
vt -48.0315 11.811
vt -50 9.84252
vt -51.9685 7.87402
f 14/79/4 15/80/4 44/81/4 45/82/4 46/83/4 42/84/4 13/85/4 

usemtl Metal_Seamed
vt 1.57753 6.20393e-17
vn -0.707107 3.03888e-17 0.707107
v 1.17 -0.1 -0.15
vt 1.57753 -0.218723
v 1.22 -0.1 -0.1
vt 1.7322 -0.218723
vt 1.7322 6.20393e-17
f 15/86/16 47/87/16 48/88/16 14/89/16 

usemtl FrontColor
vt 28.3956 0
vn -0.707107 0 0.707107
vt 25.6117 0
v 1.12 -0.1 -0.2
vt 25.6117 -3.93701
vt 28.3956 -3.93701
f 15/90/17 44/91/17 49/92/17 47/93/17 

vt -36.7473 0
vn -0.707107 0 -0.707107
vt -39.5312 0
v 1.17 -0.1 -0.25
vt -39.5312 -3.93701
vt -36.7473 -3.93701
f 44/94/18 45/95/18 50/96/18 49/97/18 

usemtl Metal_Seamed
v 0.25 0 -0.25
vn 9.80858e-17 0 -1
v 0.25 -0.1 -0.25
f 51/57/19 45/58/19 50/59/19 52/60/19 

usemtl Wood_Cherry_Original
v 0.25 0 -2.04761
vt -0.136702 1.11965
v 1.17 0 -2.04761
vt -0.639764 1.11965
vt -0.639764 0.136702
vt -0.136702 0.136702
f 53/98/4 54/99/4 45/100/4 51/101/4 

usemtl Metal_Seamed
vt 2.55906 0
vn 7.84686e-16 0 1
v 0.25 -0.1 -2.04761
v 1.17 -0.1 -2.04761
vt 2.55906 -0.218723
f 54/102/20 53/74/20 55/75/20 56/103/20 

vn 1 0 -1.75698e-16
f 53/73/21 51/74/21 52/75/21 55/76/21 

usemtl FrontColor
v 0.2 0 -0.3
vt 2.78388 0
vn 0.707107 0 -0.707107
vt 8.88178e-15 0
vt 8.88178e-15 -3.93701
v 0.2 -0.1 -0.3
vt 2.78388 -3.93701
f 57/104/22 51/105/22 52/106/22 58/107/22 

vt -9.84252 9.84252
v 0.3 0 -0.2
vt -11.811 7.87402
vt -9.84252 5.90551
vt -7.87402 3.93701
vt -3.93701 7.87402
v 0.15 0 -0.25
vt -5.90551 9.84252
vt -7.87402 11.811
f 51/108/4 59/109/4 16/110/4 17/111/4 18/112/4 60/113/4 57/114/4 

vt 5.32907e-15 0
vt -2.78388 0
v 0.3 -0.1 -0.2
vt -2.78388 -3.93701
vt 5.32907e-15 -3.93701
f 51/115/22 59/116/22 61/117/22 52/118/22 

vt 13.9194 0
vt 11.1355 0
v 0.25 -0.1 -0.15
vt 11.1355 -3.93701
vt 13.9194 -3.93701
f 59/119/15 16/120/15 62/121/15 61/122/15 

usemtl Metal_Seamed
f 15/102/3 16/74/3 62/75/3 47/103/3 

vt 0.463981 1.09665e-17
vn 0.707107 -7.09073e-17 0.707107
v 0.2 -0.1 -0.1
vt 0.463981 -0.218723
vt 0.618641 -0.218723
vt 0.618641 1.09665e-17
f 17/123/23 63/124/23 62/125/23 16/126/23 

vt -0.15466 6.57992e-17
vn -0.707107 1.41815e-16 0.707107
v 0.1 -0.1 -0.2
vt -0.15466 -0.218723
vt 0.15466 -0.218723
vt 0.15466 6.57992e-17
f 18/127/24 64/128/24 63/129/24 17/130/24 

vt -0.618641 -1.09665e-17
vn -0.707107 7.09073e-17 -0.707107
v 0.15 -0.1 -0.25
vt -0.618641 -0.218723
vt -0.463981 -0.218723
vt -0.463981 -1.09665e-17
f 60/131/25 65/132/25 64/133/25 18/134/25 

usemtl FrontColor
vt -11.1355 0
vt -13.9194 0
vt -13.9194 -3.93701
vt -11.1355 -3.93701
f 60/135/18 57/136/18 58/137/18 65/138/18 

usemtl Metal_Seamed
vt -0.437445 0.656168
vt -0.328084 0.546807
v 0.15 -0.1 -2.04761
vt -0.328084 4.47858
v 0.2 -0.1 -1.99761
vt -0.437445 4.36922
vt -0.546807 4.47858
vt -0.546807 0.546807
f 58/139/4 65/140/4 66/141/4 67/142/4 55/143/4 52/144/4 

usemtl FrontColor
f 63/111/4 64/112/4 65/113/4 58/114/4 

usemtl Metal_Seamed
vt -0.15466 -0.241849
vn -0.706207 -0.0504433 0.706207
v 0.15 -0.8 -0.2
vt -0.0773301 -1.77486
v 0.2 -0.8 -0.15
vt 0.0773301 -1.77486
vt 0.15466 -0.241849
f 64/145/26 68/146/26 69/147/26 63/148/26 

vt -0.773301 -0.210643
v 0.2 -0.8 -0.25
vt -0.695971 -1.74365
vt -0.541311 -1.74365
vt -0.463981 -0.210643
vt -0.618641 -0.210643
f 58/149/9 70/150/9 68/151/9 64/152/9 65/153/9 

vt 0.0773301 -1.71245
vt 0.15466 -0.179436
vt 4.44089e-16 -0.179436
vt -0.15466 -0.179436
v 0.25 -0.8 -0.2
vt -0.0773301 -1.71245
f 70/154/10 58/155/10 52/156/10 61/157/10 71/158/10 

usemtl FrontColor
f 63/111/4 58/114/4 52/108/4 61/109/4 62/110/4 

usemtl Metal_Seamed
vt -0.656168 0.437445
vt -2.55906 0.546807
vt -2.44969 0.437445
vt -2.55906 0.328084
vt -0.546807 0.328084
f 61/159/4 52/144/4 50/160/4 49/161/4 47/162/4 62/163/4 

v 1.17 -0.8 -0.2
vt -2.11885 -1.82323
vt -2.04152 -0.290219
vt -2.19618 -0.290219
v 1.22 -0.1 -0.3
vt -2.35084 -0.290219
v 1.22 -0.8 -0.25
vt -2.27351 -1.82323
f 72/164/9 49/165/9 50/166/9 73/167/9 74/168/9 

usemtl FrontColor
vt -27.0037 -33.3798
vn 0.706207 0.0504433 -0.706207
vt -25.6117 -5.78565
vt -28.3956 -5.78565
vt -31.1795 -5.78565
v 1.22 -0.8 -0.15
vt -29.7876 -33.3798
f 72/169/27 49/170/27 47/171/27 48/172/27 75/173/27 

usemtl Metal_Seamed
vt 2.04152 -0.131067
vn 0.706207 -0.0504433 0.706207
vt 2.11885 -1.66408
v 1.27 -0.8 -0.2
vt 2.27351 -1.66408
v 1.32 -0.1 -0.2
vt 2.35084 -0.131067
f 48/174/28 75/175/28 76/176/28 77/177/28 

vt -2.77778 0.437445
vn 0 -1 1.80478e-15
vt -2.66842 0.328084
vt -2.55906 0.437445
vt -2.66842 0.546807
f 76/178/29 75/179/29 72/180/29 74/181/29 

vt -1.5002 -1.63287
vt -1.42287 -0.0998602
vt -1.57753 -0.0998602
vt -1.7322 -0.0998602
vt -1.65486 -1.63287
f 74/182/10 73/183/10 43/184/10 77/185/10 76/186/10 

usemtl FrontColor
vt -25.6117 4.28635e-16
vn 0.707107 -1.01296e-17 -0.707107
vt -28.3956 4.28635e-16
vt -28.3956 -3.93701
vt -25.6117 -3.93701
f 46/187/30 42/188/30 43/189/30 73/190/30 

usemtl Metal_Seamed
vt -1.7322 -1.90504e-16
vn 0.707107 8.10369e-17 -0.707107
vt -1.7322 -0.218723
vt -1.57753 -0.218723
vt -1.57753 -1.90504e-16
f 13/191/31 77/192/31 43/193/31 42/194/31 

vt 2.04152 7.01858e-17
vn 0.707107 -4.05184e-17 0.707107
vt 2.04152 -0.218723
vt 2.35084 -0.218723
vt 2.35084 7.01858e-17
f 14/195/32 48/196/32 77/197/32 13/198/32 

vt -2.66842 0.656168
vn 2.25597e-16 -1 8.67951e-18
vt -2.55906 4.47858
v 1.22 -0.1 -1.99761
vt -2.66842 4.36922
vt -2.77778 4.47858
vt -2.77778 0.546807
f 73/199/33 50/160/33 56/200/33 78/201/33 41/202/33 43/203/33 

usemtl FrontColor
vt -42.3151 0
vt -42.3151 -3.93701
f 45/95/18 46/204/18 73/205/18 50/96/18 

usemtl Metal_Seamed
vt -4.47858 0
vt -4.47858 -0.218723
f 45/57/1 54/206/1 56/207/1 50/60/1 

v 1.12 -0.1 -2.09761
vt -1.51197 -0.469468
v 1.17 -0.8 -2.09761
vt -1.43464 -2.00248
v 1.22 -0.8 -2.04761
vt -1.27998 -2.00248
vt -1.20265 -0.469468
vt -1.35731 -0.469468
f 79/208/26 80/209/26 81/210/26 78/211/26 56/212/26 

usemtl FrontColor
v 1.22 -0.8 -2.14761
vt 93.7503 -30.1533
vn 0.706207 0.0504433 0.706207
vt 95.1423 -2.55916
vt 92.3584 -2.55916
vt 89.5745 -2.55916
vt 90.9665 -30.1533
f 82/213/34 38/214/34 37/215/34 79/216/34 80/217/34 

usemtl Metal_Seamed
vt 1.20265 0.0481832
v 1.27 -0.8 -2.09761
vt 1.27998 -1.48483
vt 1.43464 -1.48483
vt 1.51197 0.0481832
f 39/218/10 83/219/10 82/220/10 38/221/10 

vt 5.20835 -1.81212
vt 5.28568 -0.27911
vt 5.13102 -0.27911
vt 4.97636 -0.27911
vt 5.05369 -1.81212
f 83/222/28 39/223/28 41/224/28 78/225/28 81/226/28 

usemtl FrontColor
vt -44.0945 82.583
vt -46.063 84.5515
vt -48.0315 86.52
vt -51.9685 82.583
vt -50 80.6145
vt -48.0315 78.646
vt -46.063 80.6145
f 79/227/4 37/228/4 38/229/4 39/230/4 41/231/4 78/232/4 56/233/4 

usemtl Metal_Seamed
vt -2.44969 4.58794
vt -0.656168 4.58794
vt -0.546807 4.69731
vt -2.55906 4.69731
f 79/234/4 56/200/4 55/143/4 35/235/4 34/236/4 37/237/4 

usemtl FrontColor
vt -5.90551 80.6145
vt -3.93701 82.583
vt -7.87402 86.52
vt -9.84252 84.5515
vt -11.811 82.583
vt -9.84252 80.6145
vt -7.87402 78.646
f 66/238/4 33/239/4 32/240/4 34/241/4 35/242/4 55/243/4 67/244/4 

usemtl Metal_Seamed
vt -3.08951 1.06729e-15
vn -0.707107 3.14018e-16 0.707107
vt -3.08951 -0.218723
vt -2.93485 -0.218723
v 0.15 0 -2.04761
vt -2.93485 1.06729e-15
f 19/245/35 33/246/35 66/247/35 84/248/35 

vt -3.70815 1.89651e-14
vn -0.707107 -6.13854e-15 -0.707107
vt -3.70815 -0.218723
vt -3.39883 -0.218723
vt -3.39883 1.89651e-14
f 29/249/36 32/250/36 33/251/36 19/252/36 

usemtl FrontColor
vt -3.93701 2.98088e-13
vn -5.77529e-14 -3.60956e-15 -1
vt -5.90551 -31.4961
vt -3.93701 -3.93701
f 19/253/37 31/254/37 33/255/37

vt 50.0433 -7.01806
v 0.2 -0.8 -2.04761
vt 51.4353 -34.6122
vt 54.2192 -34.6122
vt 55.6111 -7.01806
vt 52.8272 -7.01806
f 67/256/27 85/257/27 31/258/27 33/259/27 66/260/27 

vt -66.7467 -6.45635
vn -0.706207 0.0504433 -0.706207
vt -65.3547 -34.0505
vt -62.5708 -34.0505
vt -61.1789 -6.45635
vt -63.9628 -6.45635
f 35/261/38 36/262/38 85/263/38 67/264/38 55/265/38 

usemtl Metal_Seamed
vt -0.546807 4.58794
vt -0.437445 4.47858
vt -0.328084 4.58794
vt -0.437445 4.69731
f 36/266/4 85/267/4 31/268/4 30/269/4 

vn -1 0 -1.00399e-16
f 60/57/39 84/206/39 66/207/39 65/60/39 

usemtl Wood_Cherry_Original
vt -0.082021 1.11965
vt -0.082021 0.136702
f 18/21/4 84/270/4 60/271/4

f 84/270/4 18/21/4 19/22/4

usemtl Metal_Seamed
vt -2.66842 4.47858
vt -2.55906 4.58794
vt -2.66842 4.69731
vt -2.77778 4.58794
f 81/272/4 80/273/4 82/274/4 83/275/4 

vt 0.695971 -1.74365
vt 0.773301 -0.210643
vt 0.618641 -0.210643
vt 0.463981 -0.210643
vt 0.541311 -1.74365
f 71/276/28 61/277/28 62/278/28 63/279/28 69/280/28 

vt -0.437445 0.328084
vt -0.328084 0.437445
vt -0.437445 0.546807
vt -0.546807 0.437445
f 69/281/4 68/282/4 70/283/4 71/284/4 

usemtl Wood_Cherry_Original
vt -0.776465 1.25635
f 21/285/4 24/30/4 22/32/4

