# Alias OBJ Model File
# Exported from SketchUp, (c) 2000-2012 Trimble Navigation Limited
# File units = meters

mtllib Magazine_30.mtl

g Mesh1 Model

usemtl FrontColor
v 0.642859 9.6737 -0.447171
vt -25.3094 380.854
vn 0 0 -1
v 0.745962 9.78128 -0.447171
vt -29.3686 385.09
v 0.861336 9.90167 -0.447171
vt -33.9109 389.83
v 1.16453 9.98986 -0.447171
vt -45.8476 393.302
v 1.4712 9.91464 -0.447171
vt -57.9212 390.34
v 1.60971 9.7819 -0.447171
vt -63.3742 385.114
v 1.69917 9.69616 -0.447171
vt -66.8965 381.739
v 1.78736 9.39297 -0.447171
vt -70.3686 369.802
v 1.71214 9.0863 -0.447171
vt -67.4071 357.728
v 1.60904 8.97872 -0.447171
vt -63.348 353.493
v 1.49366 8.85833 -0.447171
vt -58.8057 348.753
v 1.19047 8.77014 -0.447171
vt -46.8689 345.281
v 0.883802 8.84536 -0.447171
vt -34.7953 348.242
v 0.745295 8.9781 -0.447171
vt -29.3423 353.468
v 0.655829 9.06384 -0.447171
vt -25.82 356.844
v 0.567638 9.36703 -0.447171
vt -22.3479 368.781
f 1/1/1 2/2/1 3/3/1 4/4/1 5/5/1 6/6/1 7/7/1 8/8/1 9/9/1 10/10/1 11/11/1 12/12/1 13/13/1 14/14/1 15/15/1 16/16/1 

v 0.642859 9.6737 -4.53717
vt 178.629 292.482
vn 0.876461 -0.481472 -0
v 0.745962 9.78128 -4.53717
vt 178.629 298.349
vn 0.721982 -0.691912 -0
vt 17.6052 298.349
vt 17.6052 292.482
f 17/17/2 18/18/3 2/19/3 1/20/2 

v 0.569683 9.36 -4.53717
vt 22.4284 368.504
vn 0 0 1
v 1.77927 9.36 -4.53717
vt 70.0502 368.504
v 1.78736 9.39297 -4.53717
vt 70.3686 369.802
v 1.69917 9.69616 -4.53717
vt 66.8965 381.739
v 1.60971 9.7819 -4.53717
vt 63.3742 385.114
v 1.4712 9.91464 -4.53717
vt 57.9212 390.34
v 1.16453 9.98986 -4.53717
vt 45.8476 393.302
v 0.861336 9.90167 -4.53717
vt 33.9109 389.83
vt 29.3686 385.09
vt 25.3094 380.854
v 0.567638 9.36703 -4.53717
vt 22.3479 368.781
f 19/21/4 20/22/4 21/23/4 22/24/4 23/25/4 24/26/4 25/27/4 26/28/4 18/29/4 17/30/4 27/31/4 

v 1.855 9.36 -0.5
vt 73.0315 19.685
vn 0 1 -0
v 1.855 9.36 -4.53717
vt 73.0315 178.629
vt 70.0502 178.629
vt 22.4284 178.629
v 0.5 9.36 -4.53717
vt 19.685 178.629
v 0.5 9.36 -0.5
vt 19.685 19.685
f 28/32/5 29/33/5 20/34/5 19/35/5 30/36/5 31/37/5 

v 1.855 8.75 -4.53717
vt 178.629 344.488
vn 1 0 -0
vt 178.629 368.504
vt 19.685 368.504
v 1.855 8.75 -0.5
vt 19.685 344.488
f 32/38/6 29/39/6 28/40/6 33/41/6 

v 0.5 8.75 -4.53717
vt -19.685 344.488
vt -19.685 368.504
vt -22.4284 368.504
v 0.655829 9.06384 -4.53717
v 0.745295 8.9781 -4.53717
v 0.883802 8.84536 -4.53717
v 1.19047 8.77014 -4.53717
v 1.49366 8.85833 -4.53717
v 1.60904 8.97872 -4.53717
v 1.71214 9.0863 -4.53717
vt -70.0502 368.504
vt -73.0315 368.504
vt -73.0315 344.488
f 34/42/1 30/43/1 19/44/1 35/15/1 36/14/1 37/13/1 38/12/1 39/11/1 40/10/1 41/9/1 20/45/1 29/46/1 32/47/1 

v 0.5 8.75 -0.5
vn -1 0 -0
vt -178.629 368.504
vt -178.629 344.488
f 42/42/7 31/43/7 30/48/7 34/49/7 

vt 73.0315 344.488
vt 73.0315 368.504
f 33/50/4 28/51/4 31/40/4 42/41/4 

v 1.855 10.01 -0.5
vt 73.0315 394.094
v 0.5 10.01 -0.5
vt 19.685 394.094
f 43/52/4 44/53/4 31/40/4 28/51/4 

usemtl Aluminum
vt 0.211614 6.81759
v 2.355 10.01 -0
vt 1.42881 6.4895
vt 1.10072 6.81759
f 44/54/5 45/55/5 43/56/5

v 0.236225 10.01 -0.25
vt 0.0385334 6.65354
f 46/57/5 45/55/5 44/54/5

v 0 10.01 -0.25
vt -0.11647 6.65354
f 47/58/5 45/55/5 46/57/5

v 0 10.01 -0
vt -0.11647 6.4895
f 45/55/5 47/58/5 48/59/5

vt -6.4895 -4.2354
vn -1 7.61888e-36 -1.11966e-18
vt -6.65354 -4.2354
v 0 -5.01 -0.25
vt -6.65354 -14.091
v 0 -5.01 -0
vt -6.4895 -14.091
f 48/60/8 47/61/8 49/62/8 50/63/8 

usemtl FrontColor
vt -9.30019 394.094
v 0.236225 -5.01 -0.25
vt -9.30019 -197.244
vt 0 -197.244
vt 0 394.094
f 46/64/1 51/65/1 49/66/1 47/67/1 

usemtl Aluminum
vt -0.155266 -3.2874
vn -0.998485 0 0.055017
vt -0.155266 6.56824
v 0 10.01 -4.53717
vt -2.97264 6.56824
v 0 -5.01 -4.53717
vt -2.97264 -3.2874
f 51/68/9 46/69/9 52/70/9 53/71/9 

v 0 10.01 -5.03717
vt -0.11647 9.79473
vt -0.11647 9.46665
f 46/57/5 54/72/5 52/73/5

v 0.5 10.01 -4.53717
vt 0.211614 9.46665
f 54/72/5 46/57/5 55/74/5

f 55/74/5 46/57/5 44/54/5

usemtl FrontColor
vt -19.685 394.094
vt -178.629 394.094
f 44/75/7 55/76/7 30/48/7 31/43/7 

v 1.855 10.01 -4.53717
vt -73.0315 394.094
f 27/16/1 19/44/1 30/43/1 55/75/1 56/77/1 29/46/1 20/45/1 21/8/1 22/7/1 23/6/1 24/5/1 25/4/1 26/3/1 18/2/1 17/1/1 

vt 178.629 335.431
vn 0.855198 0.518301 -0
vt 178.629 347.575
vn 0.960204 0.279299 -0
vt 178.629 347.863
vn 0.999774 0.0212632 -0
vt 17.6052 347.863
vt 17.6052 335.431
f 35/78/10 19/79/11 27/80/12 16/81/12 15/82/10 

vt 178.629 363.488
vt 178.629 375.919
vt 17.6052 375.919
vt 17.6052 363.488
f 27/83/12 17/84/2 1/85/2 16/86/12 

vt 178.629 223.384
vn 0.691912 0.721982 -0
vt 178.629 228.263
vt 17.6052 228.263
vt 17.6052 223.384
f 36/87/13 35/88/10 15/89/10 14/90/13 

vt 178.629 215.831
vn 0.481472 0.876461 -0
vt 17.6052 215.831
f 37/91/14 36/87/13 14/90/13 13/92/14 

vt 178.629 36.7339
vn -0.0212632 0.999774 -0
vt 178.629 49.1653
vt 17.6052 49.1653
vt 17.6052 36.7339
f 38/93/15 37/94/14 13/95/14 12/96/15 

vt -178.629 153.872
vn -0.518301 0.855198 -0
vt -178.629 141.44
vt -17.6052 141.44
vt -17.6052 153.872
f 39/97/16 38/98/15 12/99/15 11/100/16 

vt -178.629 299.047
vn -0.721982 0.691912 -0
vt -178.629 292.482
vt -17.6052 292.482
vt -17.6052 299.047
f 40/101/17 39/102/16 11/103/16 10/104/17 

vt -178.629 304.913
vn -0.876461 0.481472 1.27991e-18
vt -17.6052 304.913
f 41/105/18 40/101/17 10/104/17 9/106/18 

vt -178.629 375.919
vn -0.999774 -0.0212632 1.27991e-18
vt -178.629 374.582
vn -0.971211 0.238222 2.4726e-18
vt -178.629 363.488
vt -17.6052 363.488
vt -17.6052 375.919
f 21/107/19 20/108/20 41/109/18 9/110/18 8/111/19 

vt -178.629 347.863
vn -0.855198 -0.518301 -0
vt -178.629 335.431
vt -17.6052 335.431
vt -17.6052 347.863
f 22/112/21 21/113/19 8/114/19 7/115/21 

vt -178.629 220.71
vn -0.691912 -0.721982 -0
vt -178.629 215.831
vt -17.6052 215.831
vt -17.6052 220.71
f 23/116/22 22/117/21 7/118/21 6/119/22 

vt -178.629 228.263
vn -0.481472 -0.876461 -0
vt -17.6052 228.263
f 24/120/23 23/116/22 6/119/22 5/121/23 

vt -178.629 49.1653
vn 0.0212632 -0.999774 -0
vt -178.629 36.7339
vt -17.6052 36.7339
vt -17.6052 49.1653
f 25/122/24 24/123/23 5/124/23 4/125/24 

vt 178.629 141.44
vn 0.518301 -0.855198 -0
vt 178.629 153.872
vt 17.6052 153.872
vt 17.6052 141.44
f 26/126/25 25/127/24 4/128/24 3/129/25 

vt 178.629 304.913
vt 17.6052 304.913
f 18/18/3 26/130/25 3/131/25 2/19/3 

usemtl Aluminum
v 2.355 10.01 -5.03717
vt 1.42881 9.79473
vt 1.10072 9.46665
f 57/132/5 55/74/5 56/133/5

f 54/72/5 55/74/5 57/132/5

v 2.355 -5.01 -5.03717
vt -1.42881 -14.091
v 0 -5.01 -5.03717
vt 0.11647 -14.091
vt 0.11647 -4.2354
vt -1.42881 -4.2354
f 58/134/1 59/135/1 54/136/1 57/137/1 

v 2.355 -5.01 -0
vt -1.42881 6.4895
vn 0 -1 -0
vt 0.11647 6.4895
vt 0.11647 6.65354
vt -0.0385334 6.65354
vt 0.11647 9.46665
vt 0.11647 9.79473
vt -1.42881 9.79473
v 2.355 -5.01 -4.53717
vt -1.42881 9.46665
v 2.11878 -5.01 -0.25
vt -1.2738 6.65354
v 2.355 -5.01 -0.25
vt -1.42881 6.65354
f 60/138/26 50/139/26 49/140/26 51/141/26 53/142/26 59/143/26 58/144/26 61/145/26 62/146/26 63/147/26 

vt 1.42881 -14.091
vt 1.42881 -4.2354
vt -0.11647 -4.2354
vt -0.11647 -14.091
f 60/148/4 45/149/4 48/150/4 50/151/4 

vt 6.4895 -14.091
vt 6.65354 -14.091
v 2.355 10.01 -0.25
vt 6.65354 -4.2354
vt 6.4895 -4.2354
f 60/152/6 63/153/6 64/154/6 45/155/6 

usemtl FrontColor
vt -83.4163 -197.244
vn 7.64009e-16 -1.80298e-17 -1
v 2.11878 10.01 -0.25
vt -83.4163 394.094
vt -92.7165 394.094
vt -92.7165 -197.244
f 62/156/27 65/157/27 64/158/27 63/159/27 

usemtl Aluminum
vt 0.240282 6.56824
vn 0.998485 1.28871e-18 0.055017
vt 0.240282 -3.2874
vt 3.05765 -3.2874
v 2.355 10.01 -4.53717
vt 3.05765 6.56824
f 65/160/28 62/161/28 61/162/28 66/163/28 

vt 9.79473 -4.2354
vt 9.46665 -4.2354
vt 9.46665 -14.091
vt 9.79473 -14.091
f 57/164/6 66/165/6 61/166/6 58/167/6 

vt 1.2738 6.65354
vt 1.42881 9.46665
f 57/132/5 65/168/5 66/169/5

f 57/132/5 56/133/5 65/168/5

f 43/56/5 65/168/5 56/133/5

f 43/56/5 45/55/5 65/168/5

vt 1.42881 6.65354
f 65/168/5 45/55/5 64/170/5

usemtl FrontColor
vt 178.629 394.094
f 56/171/6 43/53/6 28/40/6 29/39/6 

usemtl Aluminum
vt -9.79473 -14.091
vn -1 1.38061e-18 -7.31943e-18
vt -9.46665 -14.091
vt -9.46665 -4.2354
vt -9.79473 -4.2354
f 59/172/29 53/173/29 52/174/29 54/175/29 

usemtl FrontColor
vt -19.685 19.685
vt -19.685 178.629
vt -73.0315 178.629
vt -73.0315 19.685
f 42/176/26 34/177/26 32/178/26 33/179/26 

